<mxfile host="app.diagrams.net" modified="2024-04-27T06:41:59.518Z" agent="Mozilla/5.0 (Windows NT 10.0; Win64; x64) AppleWebKit/537.36 (KHTML, like Gecko) Chrome/122.0.0.0 Safari/537.36" etag="8DXwK9nmS_PeWjPDyUrd" version="24.2.7" type="github" pages="5">
  <diagram id="C5RBs43oDa-KdzZeNtuy" name="Page-1">
    <mxGraphModel dx="1466" dy="667" grid="1" gridSize="10" guides="1" tooltips="1" connect="1" arrows="1" fold="1" page="1" pageScale="1" pageWidth="827" pageHeight="1169" math="0" shadow="0">
      <root>
        <mxCell id="WIyWlLk6GJQsqaUBKTNV-0" />
        <mxCell id="WIyWlLk6GJQsqaUBKTNV-1" parent="WIyWlLk6GJQsqaUBKTNV-0" />
        <mxCell id="liVZiF7P_75QzLHdazcV-2" style="edgeStyle=orthogonalEdgeStyle;rounded=0;orthogonalLoop=1;jettySize=auto;html=1;exitX=0.5;exitY=1;exitDx=0;exitDy=0;entryX=0.5;entryY=0;entryDx=0;entryDy=0;" edge="1" parent="WIyWlLk6GJQsqaUBKTNV-1" source="liVZiF7P_75QzLHdazcV-0" target="liVZiF7P_75QzLHdazcV-1">
          <mxGeometry relative="1" as="geometry" />
        </mxCell>
        <mxCell id="liVZiF7P_75QzLHdazcV-0" value="User Interface" style="rounded=0;whiteSpace=wrap;html=1;" vertex="1" parent="WIyWlLk6GJQsqaUBKTNV-1">
          <mxGeometry x="360" y="50" width="120" height="60" as="geometry" />
        </mxCell>
        <mxCell id="liVZiF7P_75QzLHdazcV-17" style="edgeStyle=orthogonalEdgeStyle;rounded=0;orthogonalLoop=1;jettySize=auto;html=1;" edge="1" parent="WIyWlLk6GJQsqaUBKTNV-1" source="liVZiF7P_75QzLHdazcV-1" target="liVZiF7P_75QzLHdazcV-3">
          <mxGeometry relative="1" as="geometry">
            <Array as="points">
              <mxPoint x="420" y="200" />
              <mxPoint x="270" y="200" />
            </Array>
          </mxGeometry>
        </mxCell>
        <mxCell id="liVZiF7P_75QzLHdazcV-18" style="edgeStyle=orthogonalEdgeStyle;rounded=0;orthogonalLoop=1;jettySize=auto;html=1;" edge="1" parent="WIyWlLk6GJQsqaUBKTNV-1" source="liVZiF7P_75QzLHdazcV-1" target="liVZiF7P_75QzLHdazcV-4">
          <mxGeometry relative="1" as="geometry">
            <Array as="points">
              <mxPoint x="420" y="200" />
              <mxPoint x="580" y="200" />
            </Array>
          </mxGeometry>
        </mxCell>
        <mxCell id="liVZiF7P_75QzLHdazcV-1" value="Front_end App" style="rounded=0;whiteSpace=wrap;html=1;" vertex="1" parent="WIyWlLk6GJQsqaUBKTNV-1">
          <mxGeometry x="360" y="130" width="120" height="30" as="geometry" />
        </mxCell>
        <mxCell id="liVZiF7P_75QzLHdazcV-14" style="edgeStyle=orthogonalEdgeStyle;rounded=0;orthogonalLoop=1;jettySize=auto;html=1;" edge="1" parent="WIyWlLk6GJQsqaUBKTNV-1" source="liVZiF7P_75QzLHdazcV-3" target="liVZiF7P_75QzLHdazcV-5">
          <mxGeometry relative="1" as="geometry" />
        </mxCell>
        <mxCell id="liVZiF7P_75QzLHdazcV-15" style="edgeStyle=orthogonalEdgeStyle;rounded=0;orthogonalLoop=1;jettySize=auto;html=1;" edge="1" parent="WIyWlLk6GJQsqaUBKTNV-1" source="liVZiF7P_75QzLHdazcV-3" target="liVZiF7P_75QzLHdazcV-6">
          <mxGeometry relative="1" as="geometry" />
        </mxCell>
        <mxCell id="liVZiF7P_75QzLHdazcV-3" value="Authentication Service" style="rounded=0;whiteSpace=wrap;html=1;" vertex="1" parent="WIyWlLk6GJQsqaUBKTNV-1">
          <mxGeometry x="210" y="220" width="120" height="50" as="geometry" />
        </mxCell>
        <mxCell id="liVZiF7P_75QzLHdazcV-19" style="edgeStyle=orthogonalEdgeStyle;rounded=0;orthogonalLoop=1;jettySize=auto;html=1;entryX=0.5;entryY=0;entryDx=0;entryDy=0;" edge="1" parent="WIyWlLk6GJQsqaUBKTNV-1" source="liVZiF7P_75QzLHdazcV-4" target="liVZiF7P_75QzLHdazcV-7">
          <mxGeometry relative="1" as="geometry" />
        </mxCell>
        <mxCell id="liVZiF7P_75QzLHdazcV-4" value="Dashboard Service" style="rounded=0;whiteSpace=wrap;html=1;" vertex="1" parent="WIyWlLk6GJQsqaUBKTNV-1">
          <mxGeometry x="520" y="220" width="120" height="60" as="geometry" />
        </mxCell>
        <mxCell id="liVZiF7P_75QzLHdazcV-5" value="User Database (Firebase)" style="rounded=0;whiteSpace=wrap;html=1;" vertex="1" parent="WIyWlLk6GJQsqaUBKTNV-1">
          <mxGeometry x="100" y="330" width="120" height="60" as="geometry" />
        </mxCell>
        <mxCell id="liVZiF7P_75QzLHdazcV-6" value="Expense Database (Firebase)" style="rounded=0;whiteSpace=wrap;html=1;" vertex="1" parent="WIyWlLk6GJQsqaUBKTNV-1">
          <mxGeometry x="314" y="330" width="120" height="60" as="geometry" />
        </mxCell>
        <mxCell id="liVZiF7P_75QzLHdazcV-7" value="Budget Database (Firebase)" style="rounded=0;whiteSpace=wrap;html=1;" vertex="1" parent="WIyWlLk6GJQsqaUBKTNV-1">
          <mxGeometry x="520" y="330" width="120" height="60" as="geometry" />
        </mxCell>
      </root>
    </mxGraphModel>
  </diagram>
  <diagram id="bZJ0JHsckAn7cVBQDcqu" name="Trang-2">
    <mxGraphModel dx="1715" dy="667" grid="1" gridSize="10" guides="1" tooltips="1" connect="1" arrows="1" fold="1" page="1" pageScale="1" pageWidth="827" pageHeight="1169" math="0" shadow="0">
      <root>
        <mxCell id="0" />
        <mxCell id="1" parent="0" />
        <mxCell id="ZteoWchztNBd6G3qYclb-1" value="" style="edgeStyle=orthogonalEdgeStyle;rounded=0;orthogonalLoop=1;jettySize=auto;html=1;" edge="1" parent="1" target="ZteoWchztNBd6G3qYclb-4">
          <mxGeometry relative="1" as="geometry">
            <mxPoint x="99" y="526" as="sourcePoint" />
          </mxGeometry>
        </mxCell>
        <mxCell id="ZteoWchztNBd6G3qYclb-2" value="Actor" style="shape=umlActor;verticalLabelPosition=bottom;verticalAlign=top;html=1;outlineConnect=0;" vertex="1" parent="1">
          <mxGeometry x="39" y="476" width="60" height="100" as="geometry" />
        </mxCell>
        <mxCell id="ZteoWchztNBd6G3qYclb-3" style="edgeStyle=orthogonalEdgeStyle;rounded=0;orthogonalLoop=1;jettySize=auto;html=1;entryX=0;entryY=0.5;entryDx=0;entryDy=0;" edge="1" parent="1" source="ZteoWchztNBd6G3qYclb-4" target="ZteoWchztNBd6G3qYclb-5">
          <mxGeometry relative="1" as="geometry" />
        </mxCell>
        <mxCell id="ZteoWchztNBd6G3qYclb-4" value="manage" style="rhombus;whiteSpace=wrap;html=1;" vertex="1" parent="1">
          <mxGeometry x="139" y="486" width="80" height="80" as="geometry" />
        </mxCell>
        <mxCell id="ZteoWchztNBd6G3qYclb-5" value="Contents" style="rounded=0;whiteSpace=wrap;html=1;" vertex="1" parent="1">
          <mxGeometry x="299" y="496" width="120" height="60" as="geometry" />
        </mxCell>
        <mxCell id="ZteoWchztNBd6G3qYclb-6" value="Budget" style="ellipse;whiteSpace=wrap;html=1;rounded=0;" vertex="1" parent="1">
          <mxGeometry x="559" y="316" width="150" height="80" as="geometry" />
        </mxCell>
        <mxCell id="ZteoWchztNBd6G3qYclb-7" value="Income" style="ellipse;whiteSpace=wrap;html=1;rounded=0;" vertex="1" parent="1">
          <mxGeometry x="649" y="516" width="140" height="80" as="geometry" />
        </mxCell>
        <mxCell id="ZteoWchztNBd6G3qYclb-8" value="Transactions" style="ellipse;whiteSpace=wrap;html=1;rounded=0;" vertex="1" parent="1">
          <mxGeometry x="539" y="716" width="140" height="80" as="geometry" />
        </mxCell>
        <mxCell id="ZteoWchztNBd6G3qYclb-9" value="Savings" style="ellipse;whiteSpace=wrap;html=1;rounded=0;" vertex="1" parent="1">
          <mxGeometry x="619" y="626" width="120" height="80" as="geometry" />
        </mxCell>
        <mxCell id="ZteoWchztNBd6G3qYclb-10" value="Expense" style="ellipse;whiteSpace=wrap;html=1;rounded=0;" vertex="1" parent="1">
          <mxGeometry x="649" y="406" width="130" height="80" as="geometry" />
        </mxCell>
        <mxCell id="ZteoWchztNBd6G3qYclb-11" value="&lt;font style=&quot;font-size: 12px;&quot;&gt;Dashboard&lt;/font&gt;" style="ellipse;whiteSpace=wrap;html=1;rounded=0;" vertex="1" parent="1">
          <mxGeometry x="459" y="250" width="120" height="80" as="geometry" />
        </mxCell>
        <mxCell id="ZteoWchztNBd6G3qYclb-12" value="Reports" style="ellipse;whiteSpace=wrap;html=1;rounded=0;" vertex="1" parent="1">
          <mxGeometry x="409" y="750" width="110" height="80" as="geometry" />
        </mxCell>
        <mxCell id="ZteoWchztNBd6G3qYclb-13" value="" style="endArrow=classic;html=1;rounded=0;entryX=0.234;entryY=0.907;entryDx=0;entryDy=0;entryPerimeter=0;" edge="1" parent="1" target="ZteoWchztNBd6G3qYclb-11">
          <mxGeometry width="50" height="50" relative="1" as="geometry">
            <mxPoint x="359" y="496" as="sourcePoint" />
            <mxPoint x="409" y="446" as="targetPoint" />
          </mxGeometry>
        </mxCell>
        <mxCell id="ZteoWchztNBd6G3qYclb-14" value="" style="endArrow=classic;html=1;rounded=0;exitX=0.75;exitY=0;exitDx=0;exitDy=0;" edge="1" parent="1" source="ZteoWchztNBd6G3qYclb-5" target="ZteoWchztNBd6G3qYclb-6">
          <mxGeometry width="50" height="50" relative="1" as="geometry">
            <mxPoint x="419" y="532.5" as="sourcePoint" />
            <mxPoint x="547" y="359.5" as="targetPoint" />
          </mxGeometry>
        </mxCell>
        <mxCell id="ZteoWchztNBd6G3qYclb-15" value="" style="endArrow=classic;html=1;rounded=0;entryX=0;entryY=0.627;entryDx=0;entryDy=0;entryPerimeter=0;" edge="1" parent="1" target="ZteoWchztNBd6G3qYclb-10">
          <mxGeometry width="50" height="50" relative="1" as="geometry">
            <mxPoint x="419" y="519.4" as="sourcePoint" />
            <mxPoint x="649" y="426" as="targetPoint" />
          </mxGeometry>
        </mxCell>
        <mxCell id="ZteoWchztNBd6G3qYclb-16" value="" style="endArrow=classic;html=1;rounded=0;entryX=0;entryY=0.5;entryDx=0;entryDy=0;" edge="1" parent="1" target="ZteoWchztNBd6G3qYclb-7">
          <mxGeometry width="50" height="50" relative="1" as="geometry">
            <mxPoint x="419" y="536" as="sourcePoint" />
            <mxPoint x="649" y="566" as="targetPoint" />
          </mxGeometry>
        </mxCell>
        <mxCell id="ZteoWchztNBd6G3qYclb-17" value="" style="endArrow=classic;html=1;rounded=0;" edge="1" parent="1">
          <mxGeometry width="50" height="50" relative="1" as="geometry">
            <mxPoint x="419" y="546" as="sourcePoint" />
            <mxPoint x="619" y="656" as="targetPoint" />
          </mxGeometry>
        </mxCell>
        <mxCell id="ZteoWchztNBd6G3qYclb-18" value="" style="endArrow=classic;html=1;rounded=0;entryX=0;entryY=0;entryDx=0;entryDy=0;" edge="1" parent="1" target="ZteoWchztNBd6G3qYclb-8">
          <mxGeometry width="50" height="50" relative="1" as="geometry">
            <mxPoint x="385.55999999999995" y="556" as="sourcePoint" />
            <mxPoint x="528.9999999999998" y="727.2" as="targetPoint" />
          </mxGeometry>
        </mxCell>
        <mxCell id="ZteoWchztNBd6G3qYclb-19" value="" style="endArrow=classic;html=1;rounded=0;entryX=0.311;entryY=0.036;entryDx=0;entryDy=0;entryPerimeter=0;" edge="1" parent="1">
          <mxGeometry width="50" height="50" relative="1" as="geometry">
            <mxPoint x="340.65999999999997" y="556" as="sourcePoint" />
            <mxPoint x="453.21000000000004" y="748.8800000000001" as="targetPoint" />
          </mxGeometry>
        </mxCell>
        <mxCell id="ZteoWchztNBd6G3qYclb-20" value="Infor" style="ellipse;whiteSpace=wrap;html=1;" vertex="1" parent="1">
          <mxGeometry x="219" y="306" width="120" height="80" as="geometry" />
        </mxCell>
        <mxCell id="ZteoWchztNBd6G3qYclb-21" value="" style="endArrow=classic;html=1;rounded=0;entryX=0.313;entryY=0.96;entryDx=0;entryDy=0;entryPerimeter=0;" edge="1" parent="1" target="ZteoWchztNBd6G3qYclb-20">
          <mxGeometry width="50" height="50" relative="1" as="geometry">
            <mxPoint x="189" y="496" as="sourcePoint" />
            <mxPoint x="239" y="446" as="targetPoint" />
          </mxGeometry>
        </mxCell>
      </root>
    </mxGraphModel>
  </diagram>
  <diagram id="taSx8bPUiz9Ya0hTXffW" name="Trang-4">
    <mxGraphModel dx="1688" dy="704" grid="1" gridSize="10" guides="1" tooltips="1" connect="1" arrows="1" fold="1" page="1" pageScale="1" pageWidth="827" pageHeight="1169" math="0" shadow="0">
      <root>
        <mxCell id="0" />
        <mxCell id="1" parent="0" />
        <mxCell id="8Dp8zSC3ebhtns8fxO9R-1" value="Create Accont" style="swimlane;startSize=30;" vertex="1" parent="1">
          <mxGeometry x="-800" y="30" width="760" height="970" as="geometry">
            <mxRectangle x="-660" y="60" width="120" height="30" as="alternateBounds" />
          </mxGeometry>
        </mxCell>
        <mxCell id="8Dp8zSC3ebhtns8fxO9R-2" value="" style="line;strokeWidth=2;html=1;" vertex="1" parent="8Dp8zSC3ebhtns8fxO9R-1">
          <mxGeometry y="60" width="760" height="10" as="geometry" />
        </mxCell>
        <mxCell id="8Dp8zSC3ebhtns8fxO9R-6" value="&lt;font style=&quot;font-size: 14px;&quot;&gt;User&lt;/font&gt;" style="text;html=1;align=center;verticalAlign=middle;whiteSpace=wrap;rounded=0;" vertex="1" parent="8Dp8zSC3ebhtns8fxO9R-1">
          <mxGeometry x="130" y="40" width="60" height="30" as="geometry" />
        </mxCell>
        <mxCell id="8Dp8zSC3ebhtns8fxO9R-7" value="&lt;font style=&quot;font-size: 14px;&quot;&gt;Backend&lt;/font&gt;" style="text;html=1;align=center;verticalAlign=middle;whiteSpace=wrap;rounded=0;" vertex="1" parent="8Dp8zSC3ebhtns8fxO9R-1">
          <mxGeometry x="555" y="40" width="60" height="30" as="geometry" />
        </mxCell>
        <mxCell id="U-TnZSc568lD08fKWmBw-1" value="" style="ellipse;html=1;shape=startState;fillColor=#000000;strokeColor=#0D0000;" vertex="1" parent="8Dp8zSC3ebhtns8fxO9R-1">
          <mxGeometry x="130" y="90" width="60" height="60" as="geometry" />
        </mxCell>
        <mxCell id="U-TnZSc568lD08fKWmBw-4" value="&lt;font style=&quot;font-size: 14px;&quot;&gt;1.&amp;nbsp;Access system by user role&lt;/font&gt;" style="rounded=1;whiteSpace=wrap;html=1;" vertex="1" parent="8Dp8zSC3ebhtns8fxO9R-1">
          <mxGeometry x="70" y="240" width="200" height="50" as="geometry" />
        </mxCell>
        <mxCell id="U-TnZSc568lD08fKWmBw-5" value="" style="edgeStyle=orthogonalEdgeStyle;rounded=0;orthogonalLoop=1;jettySize=auto;html=1;" edge="1" parent="8Dp8zSC3ebhtns8fxO9R-1" source="U-TnZSc568lD08fKWmBw-6" target="U-TnZSc568lD08fKWmBw-8">
          <mxGeometry relative="1" as="geometry" />
        </mxCell>
        <mxCell id="U-TnZSc568lD08fKWmBw-6" value="&lt;font style=&quot;font-size: 14px;&quot;&gt;2. Select Log in / Sign in&lt;/font&gt;" style="rounded=1;whiteSpace=wrap;html=1;" vertex="1" parent="8Dp8zSC3ebhtns8fxO9R-1">
          <mxGeometry x="60" y="370" width="210" height="30" as="geometry" />
        </mxCell>
        <mxCell id="U-TnZSc568lD08fKWmBw-7" style="edgeStyle=orthogonalEdgeStyle;rounded=0;orthogonalLoop=1;jettySize=auto;html=1;entryX=1;entryY=0.75;entryDx=0;entryDy=0;" edge="1" parent="8Dp8zSC3ebhtns8fxO9R-1" source="U-TnZSc568lD08fKWmBw-8" target="U-TnZSc568lD08fKWmBw-10">
          <mxGeometry relative="1" as="geometry">
            <Array as="points">
              <mxPoint x="570" y="515" />
            </Array>
          </mxGeometry>
        </mxCell>
        <mxCell id="U-TnZSc568lD08fKWmBw-8" value="3. Display form &quot;Create Account&quot; / &quot;Sign in Account&quot;" style="whiteSpace=wrap;html=1;rounded=1;" vertex="1" parent="8Dp8zSC3ebhtns8fxO9R-1">
          <mxGeometry x="500" y="360" width="190" height="50" as="geometry" />
        </mxCell>
        <mxCell id="U-TnZSc568lD08fKWmBw-9" style="edgeStyle=orthogonalEdgeStyle;rounded=0;orthogonalLoop=1;jettySize=auto;html=1;" edge="1" parent="8Dp8zSC3ebhtns8fxO9R-1" source="U-TnZSc568lD08fKWmBw-10" target="U-TnZSc568lD08fKWmBw-11">
          <mxGeometry relative="1" as="geometry">
            <Array as="points">
              <mxPoint x="160" y="570" />
              <mxPoint x="585" y="570" />
            </Array>
          </mxGeometry>
        </mxCell>
        <mxCell id="U-TnZSc568lD08fKWmBw-11" value="5. Validate data" style="rhombus;whiteSpace=wrap;html=1;" vertex="1" parent="8Dp8zSC3ebhtns8fxO9R-1">
          <mxGeometry x="495" y="640" width="180" height="70" as="geometry" />
        </mxCell>
        <mxCell id="U-TnZSc568lD08fKWmBw-13" value="" style="ellipse;html=1;shape=endState;fillColor=#000000;strokeColor=#ff0000;" vertex="1" parent="8Dp8zSC3ebhtns8fxO9R-1">
          <mxGeometry x="555" y="850" width="60" height="60" as="geometry" />
        </mxCell>
        <mxCell id="U-TnZSc568lD08fKWmBw-14" value="&lt;span style=&quot;font-size: 14px;&quot;&gt;vali data&lt;/span&gt;" style="endArrow=open;endSize=12;dashed=1;html=1;rounded=0;exitX=0.5;exitY=1;exitDx=0;exitDy=0;" edge="1" parent="8Dp8zSC3ebhtns8fxO9R-1" source="U-TnZSc568lD08fKWmBw-11">
          <mxGeometry width="160" relative="1" as="geometry">
            <mxPoint x="584.52" y="730" as="sourcePoint" />
            <mxPoint x="585" y="850" as="targetPoint" />
          </mxGeometry>
        </mxCell>
        <mxCell id="U-TnZSc568lD08fKWmBw-17" style="edgeStyle=orthogonalEdgeStyle;rounded=0;orthogonalLoop=1;jettySize=auto;html=1;entryX=0.527;entryY=0.03;entryDx=0;entryDy=0;entryPerimeter=0;" edge="1" parent="8Dp8zSC3ebhtns8fxO9R-1">
          <mxGeometry relative="1" as="geometry">
            <mxPoint x="159.63" y="289.1" as="sourcePoint" />
            <mxPoint x="160.30000000000007" y="369.9999999999999" as="targetPoint" />
          </mxGeometry>
        </mxCell>
        <mxCell id="U-TnZSc568lD08fKWmBw-18" style="edgeStyle=orthogonalEdgeStyle;rounded=0;orthogonalLoop=1;jettySize=auto;html=1;entryX=0.45;entryY=0.012;entryDx=0;entryDy=0;entryPerimeter=0;" edge="1" parent="8Dp8zSC3ebhtns8fxO9R-1" source="U-TnZSc568lD08fKWmBw-1" target="U-TnZSc568lD08fKWmBw-4">
          <mxGeometry relative="1" as="geometry" />
        </mxCell>
        <mxCell id="U-TnZSc568lD08fKWmBw-10" value="4. Input data for creating new Account or sign in Account" style="rounded=1;whiteSpace=wrap;html=1;" vertex="1" parent="8Dp8zSC3ebhtns8fxO9R-1">
          <mxGeometry x="70" y="470" width="170" height="60" as="geometry" />
        </mxCell>
        <mxCell id="8Dp8zSC3ebhtns8fxO9R-4" value="" style="line;strokeWidth=2;direction=south;html=1;strokeColor=#1C1C1C;" vertex="1" parent="8Dp8zSC3ebhtns8fxO9R-1">
          <mxGeometry x="381" y="30" width="10" height="940" as="geometry" />
        </mxCell>
        <mxCell id="CqaxJRKmkAsGwMSYWY1K-3" value="&lt;font style=&quot;font-size: 14px;&quot;&gt;Invalid&lt;/font&gt;" style="endArrow=open;endSize=12;dashed=1;html=1;rounded=0;exitX=0;exitY=0.5;exitDx=0;exitDy=0;entryX=-0.031;entryY=0.548;entryDx=0;entryDy=0;entryPerimeter=0;" edge="1" parent="8Dp8zSC3ebhtns8fxO9R-1" source="U-TnZSc568lD08fKWmBw-11" target="U-TnZSc568lD08fKWmBw-10">
          <mxGeometry width="160" relative="1" as="geometry">
            <mxPoint x="170" y="690" as="sourcePoint" />
            <mxPoint x="20" y="510" as="targetPoint" />
            <Array as="points">
              <mxPoint x="20" y="675" />
              <mxPoint x="20" y="503" />
            </Array>
          </mxGeometry>
        </mxCell>
      </root>
    </mxGraphModel>
  </diagram>
  <diagram id="aUFxsvZEwQmQ7-bNt7NW" name="Trang-5">
    <mxGraphModel dx="478" dy="571" grid="1" gridSize="10" guides="1" tooltips="1" connect="1" arrows="1" fold="1" page="1" pageScale="1" pageWidth="827" pageHeight="1169" math="0" shadow="0">
      <root>
        <mxCell id="0" />
        <mxCell id="1" parent="0" />
      </root>
    </mxGraphModel>
  </diagram>
  <diagram id="qDrGuWoHp1g6fe_LWV6T" name="Trang-6">
    <mxGraphModel dx="478" dy="571" grid="1" gridSize="10" guides="1" tooltips="1" connect="1" arrows="1" fold="1" page="1" pageScale="1" pageWidth="827" pageHeight="1169" math="0" shadow="0">
      <root>
        <mxCell id="0" />
        <mxCell id="1" parent="0" />
      </root>
    </mxGraphModel>
  </diagram>
</mxfile>
